<svg viewBox="0 0 1440 2" fill="none" xmlns="http://www.w3.org/2000/svg">
    <path
        fill-rule="evenodd"
        clip-rule="evenodd"
        d="M5.00417 1.5H0.5V0.5H5.00417V1.5ZM23.0208 1.5H14.0125V0.5H23.0208V1.5ZM41.0375 1.5H32.0292V0.5H41.0375V1.5ZM59.0542 1.5H50.0458V0.5H59.0542V1.5ZM77.0708 1.5H68.0625V0.5H77.0708V1.5ZM95.0875 1.5H86.0792V0.5H95.0875V1.5ZM113.104 1.5H104.096V0.5H113.104V1.5ZM131.121 1.5H122.112V0.5H131.121V1.5ZM149.137 1.5H140.129V0.5H149.137V1.5ZM167.154 1.5H158.146V0.5H167.154V1.5ZM185.171 1.5H176.162V0.5H185.171V1.5ZM203.187 1.5H194.179V0.5H203.187V1.5ZM221.204 1.5H212.196V0.5H221.204V1.5ZM239.221 1.5H230.212V0.5H239.221V1.5ZM257.237 1.5H248.229V0.5H257.237V1.5ZM275.254 1.5H266.246V0.5H275.254V1.5ZM293.271 1.5H284.262V0.5H293.271V1.5ZM311.287 1.5H302.279V0.5H311.287V1.5ZM329.304 1.5H320.296V0.5H329.304V1.5ZM347.321 1.5H338.312V0.5H347.321V1.5ZM365.337 1.5H356.329V0.5H365.337V1.5ZM383.354 1.5H374.346V0.5H383.354V1.5ZM401.371 1.5H392.362V0.5H401.371V1.5ZM419.387 1.5H410.379V0.5H419.387V1.5ZM437.404 1.5H428.396V0.5H437.404V1.5ZM455.421 1.5H446.412V0.5H455.421V1.5ZM473.437 1.5H464.429V0.5H473.437V1.5ZM491.454 1.5H482.446V0.5H491.454V1.5ZM509.471 1.5H500.462V0.5H509.471V1.5ZM527.487 1.5H518.479V0.5H527.487V1.5ZM1440 1.5H536.496V0.5H541V1.5Z"
    />
</svg>
