<svg viewBox="0 0 184 106" fill="none" xmlns="http://www.w3.org/2000/svg">
    <path
        fill-rule="evenodd"
        clip-rule="evenodd"
        vector-effect="non-scaling-stroke"
        d="M92 0.424126L96.0397 2.73255L95.5436 3.60079L92 1.57588L88.4564 3.60078L87.9603 2.73254L92 0.424126ZM80.8731 7.93412L73.2897 12.2675L72.7936 11.3992L80.3769 7.06587L80.8731 7.93412ZM110.71 12.2675L103.127 7.93412L103.623 7.06588L111.206 11.3992L110.71 12.2675ZM65.7064 16.6008L58.1231 20.9341L57.6269 20.0659L65.2103 15.7325L65.7064 16.6008ZM125.877 20.9341L118.294 16.6008L118.79 15.7325L126.373 20.0659L125.877 20.9341ZM141.044 29.6008L133.46 25.2675L133.956 24.3992L141.54 28.7325L141.044 29.6008ZM50.5397 25.2675L42.9564 29.6008L42.4603 28.7325L50.0436 24.3992L50.5397 25.2675ZM35.3731 33.9341L27.7897 38.2675L27.2936 37.3992L34.8769 33.0659L35.3731 33.9341ZM156.21 38.2675L148.627 33.9341L149.123 33.0659L156.706 37.3992L156.21 38.2675ZM20.2064 42.6008L12.6231 46.9341L12.1269 46.0659L19.7103 41.7325L20.2064 42.6008ZM171.377 46.9341L163.794 42.6008L164.29 41.7325L171.873 46.0659L171.377 46.9341ZM2.00778 53L5.03974 51.2675L4.5436 50.3992L-0.00778198 53L4.54358 55.6008L5.03972 54.7325L2.00778 53ZM181.992 53L178.96 51.2675L179.456 50.3992L184.008 53L179.456 55.6008L178.96 54.7325L181.992 53ZM12.6231 59.0659L20.2064 63.3992L19.7103 64.2675L12.1269 59.9341L12.6231 59.0659ZM163.794 63.3992L171.377 59.0659L171.873 59.9341L164.29 64.2675L163.794 63.3992ZM27.7897 67.7325L35.3731 72.0659L34.8769 72.9341L27.2936 68.6008L27.7897 67.7325ZM148.627 72.0659L156.21 67.7325L156.706 68.6008L149.123 72.9341L148.627 72.0659ZM133.46 80.7325L141.044 76.3992L141.54 77.2675L133.956 81.6008L133.46 80.7325ZM42.9564 76.3992L50.5397 80.7325L50.0436 81.6008L42.4603 77.2675L42.9564 76.3992ZM58.1231 85.0659L65.7064 89.3992L65.2103 90.2675L57.6269 85.9341L58.1231 85.0659ZM118.294 89.3992L125.877 85.0659L126.373 85.9341L118.79 90.2675L118.294 89.3992ZM73.2897 93.7325L80.8731 98.0659L80.3769 98.9341L72.7936 94.6008L73.2897 93.7325ZM103.127 98.0659L110.71 93.7326L111.206 94.6008L103.623 98.9341L103.127 98.0659ZM92 104.424L88.4564 102.399L87.9603 103.267L92 105.576L96.0397 103.267L95.5436 102.399L92 104.424Z"
    />
</svg>
