<svg viewBox="0 0 2 383" fill="none" xmlns="http://www.w3.org/2000/svg">
    <path
        fill-rule="evenodd"
        clip-rule="evenodd"
        d="M0.5 4.55357V0H1.5V4.55357H0.5ZM0.5 22.7679V13.6607H1.5V22.7679H0.5ZM0.5 40.9821V31.875H1.5V40.9821H0.5ZM0.5 59.1964V50.0893H1.5V59.1964H0.5ZM0.5 77.4107V68.3036H1.5V77.4107H0.5ZM0.5 95.625V86.5179H1.5V95.625H0.5ZM0.5 113.839V104.732H1.5V113.839H0.5ZM0.5 132.054V122.946H1.5V132.054H0.5ZM0.5 150.268V141.161H1.5V150.268H0.5ZM0.5 168.482V159.375H1.5V168.482H0.5ZM0.5 186.696V177.589H1.5V186.696H0.5ZM0.5 204.911V195.804H1.5V204.911H0.5ZM0.5 223.125V214.018H1.5V223.125H0.5ZM0.5 241.339V232.232H1.5V241.339H0.5ZM0.5 259.554V250.446H1.5V259.554H0.5ZM0.5 277.768V268.661H1.5V277.768H0.5ZM0.5 295.982V286.875H1.5V295.982H0.5ZM0.5 314.197V305.089H1.5V314.197H0.5ZM0.5 332.411V323.304H1.5V332.411H0.5ZM0.5 350.625V341.518H1.5V350.625H0.5ZM0.5 368.839V359.732H1.5V368.839H0.5ZM0.5 382.5V377.947H1.5V382.5H0.5Z"
    />
</svg>
