<svg viewBox="0 0 1 589" fill="none" xmlns="http://www.w3.org/2000/svg">
    <path
        d="M1 575.864L1 584.288H0.75L0.75 584.538L0.75 588.75H0.5H0.25L0.25 584.538V584.288H0L0 575.864H0.25L0.25 575.614L0.25 566.689V566.439H0L0 558.015H0.25V557.765L0.25 548.841L0.25 548.591H0L0 540.167H0.25V539.917L0.25 530.992V530.742H0L0 522.318H0.25V522.068L0.25 513.144V512.894H0L0 504.47H0.25L0.25 504.22L0.25 495.295L0.25 495.045H0L0 486.621H0.25V486.371L0.25 477.447V477.197H0L0 468.773H0.25V468.523L0.25 459.599V459.349H0L0 450.924H0.25L0.25 450.674L0.25 441.75L0.25 441.5H0L0 433.076H0.25V432.826L0.25 423.902V423.652H0L0 415.227H0.25V414.977L0.25 406.053V405.803H0L0 397.379H0.25L0.25 397.129L0.25 388.205L0.25 387.955H0L0 379.53H0.25V379.28L0.25 370.356V370.106H0L0 361.682H0.25V361.432L0.25 352.508V352.258H0L0 343.833H0.25L0.25 343.583L0.25 334.659V334.409H0L0 325.985H0.25V325.735L0.25 316.811L0.25 316.561H0L0 308.136H0.25V307.886L0.25 298.962V298.712H0L0 290.288H0.25L0.25 290.038L0.25 281.114V280.864H0L0 272.439H0.25V272.189L0.25 263.265L0.25 263.015H0L0 254.591H0.25V254.341L0.25 245.417V245.167H0L0 236.742H0.25V236.492L0.25 227.568V227.318H0L0 218.894H0.25L0.25 218.644L0.25 209.72L0.25 209.47H0L0 201.045H0.25V200.795L0.25 191.871V191.621H0L0 183.197H0.25V182.947L0.25 174.023V173.773H0L0 165.348H0.25L0.25 165.098L0.25 156.174L0.25 155.924H0L0 147.5H0.25V147.25L0.25 138.326V138.076H0L0 129.651H0.25V129.401L0.25 120.477V120.227H0L0 111.803H0.25L0.25 111.553L0.25 102.629L0.25 102.379H0L0 93.9542H0.25V93.7042L0.25 84.78V84.53H0L0 76.1058H0.25V75.8558L0.25 66.9315V66.6815H0L0 58.2573H0.25L0.25 58.0073L0.25 49.083V48.833H0L0 40.4088H0.25V40.1588L0.25 31.2345L0.25 30.9845H0L0 22.5602H0.25V22.3102L0.25 13.386V13.136H0L0 4.71173H0.25V4.46173L0.25 0.25H0.5H0.75L0.75 4.4621V4.7121H1L1 13.1364H0.75L0.75 13.3864L0.75 22.3106L0.75 22.5606H1L1 30.9849H0.75V31.2349L0.75 40.1591V40.4091H1L1 48.8333H0.75V49.0833L0.75 58.0076V58.2576H1L1 66.6818H0.75V66.9318L0.75 75.856V76.106H1L1 84.5303H0.75V84.7803L0.75 93.7045V93.9545H1L1 102.379H0.75V102.629L0.75 111.553V111.803H1L1 120.227H0.75L0.75 120.477L0.75 129.401V129.651H1L1 138.076H0.75V138.326L0.75 147.25V147.5H1L1 155.924H0.75V156.174L0.75 165.098V165.348H1L1 173.773H0.75V174.023L0.75 182.947V183.197H1L1 191.621H0.75V191.871L0.75 200.795V201.045H1L1 209.47H0.75V209.72L0.75 218.644V218.894H1L1 227.318H0.75V227.568L0.75 236.492V236.742H1L1 245.167H0.75L0.75 245.417L0.75 254.341L0.75 254.591H1L1 263.015H0.75V263.265L0.75 272.189V272.439H1L1 280.864H0.75V281.114L0.75 290.038V290.288H1L1 298.712H0.75V298.962L0.75 307.886V308.136H1L1 316.561H0.75V316.811L0.75 325.735V325.985H1L1 334.409H0.75V334.659L0.75 343.583V343.833H1L1 352.258H0.75L0.75 352.508L0.75 361.432L0.75 361.682H1L1 370.106H0.75V370.356L0.75 379.28V379.53H1L1 387.955H0.75V388.205L0.75 397.129V397.379H1L1 405.803H0.75V406.053L0.75 414.977V415.227H1L1 423.652H0.75V423.902L0.75 432.826V433.076H1L1 441.5H0.75V441.75L0.75 450.674V450.924H1L1 459.349H0.75L0.75 459.599L0.75 468.523V468.773H1L1 477.197H0.75V477.447L0.75 486.371L0.75 486.621H1L1 495.046H0.75V495.296L0.75 504.22V504.47H1L1 512.894H0.75V513.144L0.75 522.068V522.318H1L1 530.743H0.75V530.993L0.75 539.917V540.167H1L1 548.591H0.75V548.841L0.75 557.765V558.015H1L1 566.44H0.75V566.69L0.75 575.614V575.864H1Z"
        stroke="#0A0A0A"
        stroke-width="1"
        stroke-linecap="square"
        stroke-dasharray="9 9"
    />
</svg>
