<svg viewBox="0 0 589 1" fill="none" xmlns="http://www.w3.org/2000/svg">
    <path
        d="M575.864 0H584.288V0.25H584.538H588.75V0.5V0.75H584.538H584.288V1H575.864V0.75H575.614H566.689H566.439V1H558.015V0.75H557.765H548.841H548.591V1H540.167V0.75H539.917H530.992H530.742V1H522.318V0.75H522.068H513.144H512.894V1H504.47V0.75H504.22H495.295H495.045V1H486.621V0.75H486.371H477.447H477.197V1H468.773V0.75H468.523H459.599H459.349V1H450.924V0.75H450.674H441.75H441.5V1H433.076V0.75H432.826H423.902H423.652V1H415.227V0.75H414.977H406.053H405.803V1H397.379V0.75H397.129H388.205H387.955V1H379.53V0.75H379.28H370.356H370.106V1H361.682V0.75H361.432H352.508H352.258V1H343.833V0.75H343.583H334.659H334.409V1H325.985V0.75H325.735H316.811H316.561V1H308.136V0.75H307.886H298.962H298.712V1H290.288V0.75H290.038H281.114H280.864V1H272.439V0.75H272.189H263.265H263.015V1H254.591V0.75H254.341H245.417H245.167V1H236.742V0.75H236.492H227.568H227.318V1H218.894V0.75H218.644H209.72H209.47V1H201.045V0.75H200.795H191.871H191.621V1H183.197V0.75H182.947H174.023H173.773V1H165.348V0.75H165.098H156.174H155.924V1H147.5V0.75H147.25H138.326H138.076V1H129.651V0.75H129.401H120.477H120.227V1H111.803V0.75H111.553H102.629H102.379V1H93.9542V0.75H93.7042H84.78H84.53V1H76.1058V0.75H75.8558H66.9315H66.6815V1H58.2573V0.75H58.0073H49.083H48.833V1H40.4087V0.75H40.1587H31.2345H30.9845V1H22.5602V0.75H22.3102H13.386H13.136V1H4.71173V0.75H4.46173H0.25V0.5V0.25H4.46212H4.71212V0H13.1364V0.25H13.3864H22.3106H22.5606V0H30.9848V0.25H31.2348H40.1591H40.4091V0H48.8333V0.25H49.0833H58.0076H58.2576V0H66.6818V0.25H66.9318H75.856H76.106V0H84.5303V0.25H84.7803H93.7045H93.9545V0H102.379V0.25H102.629H111.553H111.803V0H120.227V0.25H120.477H129.401H129.651V0H138.076V0.25H138.326H147.25H147.5V0H155.924V0.25H156.174H165.098H165.348V0H173.773V0.25H174.023H182.947H183.197V0H191.621V0.25H191.871H200.795H201.045V0H209.47V0.25H209.72H218.644H218.894V0H227.318V0.25H227.568H236.492H236.742V0H245.167V0.25H245.417H254.341H254.591V0H263.015V0.25H263.265H272.189H272.439V0H280.864V0.25H281.114H290.038H290.288V0H298.712V0.25H298.962H307.886H308.136V0H316.561V0.25H316.811H325.735H325.985V0H334.409V0.25H334.659H343.583H343.833V0H352.258V0.25H352.508H361.432H361.682V0H370.106V0.25H370.356H379.28H379.53V0H387.955V0.25H388.205H397.129H397.379V0H405.803V0.25H406.053H414.977H415.227V0H423.652V0.25H423.902H432.826H433.076V0H441.5V0.25H441.75H450.674H450.924V0H459.349V0.25H459.599H468.523H468.773V0H477.197V0.25H477.447H486.371H486.621V0H495.046V0.25H495.296H504.22H504.47V0H512.894V0.25H513.144H522.068H522.318V0H530.743V0.25H530.993H539.917H540.167V0H548.591V0.25H548.841H557.766H558.016V0H566.44V0.25H566.69H575.614H575.864V0Z"
        stroke="#FAFAFA"
        stroke-width="1"
        stroke-linecap="square"
        stroke-dasharray="9 9"
    />
</svg>
