<svg viewBox="0 0 290 60" fill="none" xmlns="http://www.w3.org/2000/svg">
    <path d="M269 0L248 12L269 24L290 12L269 0Z"/>
    <path d="M258 59V44.4609H241.07V59H234.062V24L241.07 24.0234V38H258V24L265 28V59H258Z"/>
    <path
        d="M225.61 33.2969C222.938 31.375 220.266 30.5312 217.289 30.5547C214.008 30.5547 211.36 31.5625 209.321 33.6016C207.328 35.6172 206.321 38.2188 206.321 41.3828C206.344 44.7344 207.375 47.4297 209.391 49.4453C211.43 51.4375 214.055 52.4219 217.336 52.4219C220.383 52.4219 223.008 51.6016 225.61 49.7031L230.063 54.5547C226.196 57.6719 222.094 59.0781 217.289 59.0781C212.274 59.0781 208.125 57.3906 204.727 54.0391C201.375 50.7109 199.664 46.4688 199.688 41.4297C199.711 36.4844 201.422 32.3359 204.75 28.9844C208.125 25.6094 212.297 23.9219 217.289 23.9219C222.071 23.9219 226.196 25.3516 230.063 28.4453L225.61 33.2969Z"
    />
    <path d="M176.539 30.1641V38.2734L192.195 38.3203V44.4375L176.539 44.3906V52.9922H195.641V59H169.859V24H195.688V30.1641H176.539Z"/>
    <path d="M153.953 30.1641V59H147.297V30.1641H135.391V24H165.859V30.1641H153.953Z"/>
    <path d="M124.711 59V38.0859L114.911 49H114H113H112.667L102.867 38.0859V59H96.2109V24H98.2266L113.789 41.6953L129.375 24H131.391V59H124.711Z"/>
    <path
        d="M83.7109 59L76.3203 45.8672H70.0391V59H63.0078V24H78.3828C82.6719 24 85.9297 25.1484 88.1562 27.375C90.0781 29.2734 90.9922 31.8047 90.9922 34.9922V35.0859C90.9922 40.2891 88.2969 43.6172 83.5625 45.5156L92.2109 59H83.7109ZM83.8906 35.3906C83.8906 31.9453 81.5234 30.2812 77.75 30.2812H70.0156V40.5469H77.8672C81.6875 40.5469 83.8906 38.5547 83.8906 35.4844V35.3906Z"
    />
    <path d="M51.7188 59L48.1328 50.2344H33.4141L29.8516 59H22.7266L37.7266 24H44.2266L59.0078 59H51.7188ZM40.7734 30.3125L35.9219 44.1172H45.6484L40.7734 30.3125Z"/>
    <path d="M7 30.1641V38H19.9922V44.4141H7V59L0 55V24H25V30.1641H7Z"/>
</svg>
