<svg width="702" height="401" viewBox="0 0 702 401" fill="none" xmlns="http://www.w3.org/2000/svg">
    <path
        d="M4.50386 199.846L2.98444 200.714L4.50386 201.583L8.4358 203.829L8.93194 202.961L16.7956 207.455L16.2994 208.323L24.1631 212.816L24.6592 211.948L32.5228 216.442L32.0267 217.31L39.8903 221.803L40.3865 220.935L48.2501 225.429L47.754 226.297L55.6176 230.79L56.1137 229.922L63.9774 234.416L63.4812 235.284L71.3449 239.777L71.841 238.909L79.7046 243.403L79.2085 244.271L87.0721 248.764L87.5683 247.896L95.4319 252.39L94.9358 253.258L102.799 257.751L103.296 256.883L111.159 261.377L110.663 262.245L118.527 266.738L119.023 265.87L126.886 270.364L126.39 271.232L134.254 275.725L134.75 274.857L142.614 279.351L142.118 280.219L149.981 284.712L150.477 283.844L158.341 288.338L157.845 289.206L165.708 293.699L166.205 292.831L174.068 297.325L173.572 298.193L181.436 302.686L181.932 301.818L189.795 306.312L189.299 307.18L197.163 311.673L197.659 310.805L205.523 315.299L205.027 316.167L212.89 320.66L213.386 319.792L221.25 324.286L220.754 325.154L228.617 329.647L229.114 328.779L236.977 333.273L236.481 334.141L244.345 338.634L244.841 337.766L252.705 342.26L252.208 343.128L260.072 347.621L260.568 346.753L268.432 351.247L267.936 352.115L275.799 356.608L276.295 355.74L284.159 360.234L283.663 361.102L291.527 365.595L292.023 364.727L299.886 369.221L299.39 370.089L307.254 374.583L307.75 373.714L315.614 378.208L315.117 379.076L322.981 383.57L323.477 382.701L331.341 387.195L330.845 388.063L338.708 392.557L339.205 391.688L347.068 396.182L346.572 397.05L350.504 399.297L351 399.58L351.496 399.297L355.428 397.05L354.932 396.182L362.796 391.688L363.292 392.556L371.155 388.063L370.659 387.195L378.523 382.701L379.019 383.569L386.883 379.076L386.386 378.208L394.25 373.714L394.746 374.582L402.61 370.089L402.114 369.221L409.977 364.727L410.473 365.595L418.337 361.102L417.841 360.234L425.705 355.74L426.201 356.608L434.064 352.115L433.568 351.247L441.432 346.753L441.928 347.621L449.792 343.128L449.296 342.26L457.159 337.766L457.655 338.634L465.519 334.141L465.023 333.273L472.886 328.779L473.383 329.647L481.246 325.154L480.75 324.286L488.614 319.792L489.11 320.66L496.973 316.167L496.477 315.299L504.341 310.805L504.837 311.673L512.701 307.18L512.205 306.312L520.068 301.818L520.564 302.686L528.428 298.193L527.932 297.325L535.795 292.831L536.292 293.699L544.155 289.206L543.659 288.338L551.523 283.844L552.019 284.712L559.883 280.219L559.386 279.351L567.25 274.857L567.746 275.725L575.61 271.232L575.114 270.364L582.977 265.87L583.473 266.738L591.337 262.245L590.841 261.377L598.705 256.883L599.201 257.751L607.064 253.258L606.568 252.39L614.432 247.896L614.928 248.764L622.792 244.271L622.295 243.403L630.159 238.909L630.655 239.777L638.519 235.284L638.023 234.416L645.886 229.922L646.383 230.79L654.246 226.297L653.75 225.429L661.614 220.935L662.11 221.803L669.973 217.31L669.477 216.442L677.341 211.948L677.837 212.816L685.701 208.323L685.205 207.455L693.068 202.961L693.564 203.829L697.496 201.583L699.016 200.714L697.496 199.846L693.564 197.599L693.068 198.467L685.204 193.974L685.701 193.106L677.837 188.612L677.341 189.48L669.477 184.987L669.973 184.119L662.11 179.625L661.614 180.493L653.75 176L654.246 175.132L646.382 170.638L645.886 171.506L638.023 167.013L638.519 166.145L630.655 161.651L630.159 162.519L622.295 158.026L622.792 157.158L614.928 152.664L614.432 153.532L606.568 149.039L607.064 148.171L599.201 143.677L598.704 144.545L590.841 140.052L591.337 139.184L583.473 134.69L582.977 135.558L575.114 131.065L575.61 130.197L567.746 125.703L567.25 126.571L559.386 122.078L559.882 121.21L552.019 116.716L551.523 117.584L543.659 113.091L544.155 112.223L536.292 107.729L535.795 108.597L527.932 104.104L528.428 103.236L520.564 98.7421L520.068 99.6104L512.205 95.1169L512.701 94.2486L504.837 89.7551L504.341 90.6234L496.477 86.1299L496.973 85.2616L489.11 80.7681L488.614 81.6363L480.75 77.1428L481.246 76.2746L473.383 71.7811L472.886 72.6494L465.023 68.1558L465.519 67.2876L457.655 62.7941L457.159 63.6623L449.295 59.1688L449.792 58.3006L441.928 53.8071L441.432 54.6753L433.568 50.1818L434.064 49.3136L426.201 44.8201L425.705 45.6883L417.841 41.1948L418.337 40.3266L410.473 35.8331L409.977 36.7013L402.114 32.2078L402.61 31.3396L394.746 26.846L394.25 27.7143L386.386 23.2208L386.883 22.3525L379.019 17.859L378.523 18.7273L370.659 14.2338L371.155 13.3655L363.292 8.87202L362.795 9.74026L354.932 5.24675L355.428 4.37851L351.496 2.13176L351 1.84825L350.504 2.13176L346.572 4.37858L347.068 5.24683L339.204 9.74034L338.708 8.87209L330.845 13.3656L331.341 14.2338L323.477 18.7273L322.981 17.8591L315.117 22.3526L315.614 23.2208L307.75 27.7143L307.254 26.8461L299.39 31.3396L299.886 32.2079L292.023 36.7014L291.526 35.8331L283.663 40.3266L284.159 41.1949L276.295 45.6884L275.799 44.8201L267.936 49.3136L268.432 50.1819L260.568 54.6754L260.072 53.8071L252.208 58.3006L252.704 59.1689L244.841 63.6624L244.345 62.7941L236.481 67.2876L236.977 68.1559L229.114 72.6494L228.617 71.7811L220.754 76.2747L221.25 77.1429L213.386 81.6364L212.89 80.7682L205.027 85.2617L205.523 86.1299L197.659 90.6234L197.163 89.7551L189.299 94.2487L189.795 95.1169L181.932 99.6104L181.436 98.7422L173.572 103.236L174.068 104.104L166.205 108.597L165.708 107.729L157.845 112.223L158.341 113.091L150.477 117.584L149.981 116.716L142.117 121.21L142.614 122.078L134.75 126.571L134.254 125.703L126.39 130.197L126.886 131.065L119.023 135.558L118.527 134.69L110.663 139.184L111.159 140.052L103.295 144.545L102.799 143.677L94.9357 148.171L95.4318 149.039L87.5682 153.532L87.0721 152.664L79.2084 157.158L79.7046 158.026L71.8409 162.519L71.3448 161.651L63.4811 166.145L63.9773 167.013L56.1136 171.506L55.6175 170.638L47.7539 175.132L48.25 176L40.3864 180.493L39.8902 179.625L32.0266 184.119L32.5227 184.987L24.6591 189.481L24.163 188.612L16.2993 193.106L16.7955 193.974L8.93182 198.468L8.43568 197.599L4.50386 199.846Z"
        stroke="#D4D4D4"
        stroke-width="1"
        stroke-dasharray="9 9"
    />
</svg>
